<?xml version="1.0" encoding="utf-8"?>
<!-- Generator: Adobe Illustrator 24.3.0, SVG Export Plug-In . SVG Version: 6.00 Build 0)  -->
<svg version="1.1" id="Layer_1" xmlns="http://www.w3.org/2000/svg" xmlns:xlink="http://www.w3.org/1999/xlink" x="0px" y="0px"
	 viewBox="0 0 350 350" enable-background="new 0 0 350 350" xml:space="preserve">
<g>
	<path fill="#2AA9E1" d="M174.999,94.438c-44.424,0-80.562,36.14-80.562,80.562c0,44.423,36.138,80.56,80.562,80.56
		c44.423,0,80.561-36.137,80.561-80.56C255.561,130.577,219.422,94.438,174.999,94.438z M174.999,243.911
		c-37.999,0-68.913-30.914-68.913-68.911c0-37.999,30.914-68.915,68.913-68.915c37.998,0,68.914,30.916,68.914,68.915
		C243.914,212.997,212.998,243.911,174.999,243.911z"/>
	<path fill="#2AA9E1" d="M304.216,195.765c2.746-0.523,4.732-2.923,4.732-5.722l-0.003-30.085c0-2.795-1.985-5.197-4.729-5.723
		l-20.356-3.882c-0.642-2.846-1.393-5.666-2.253-8.444l15.679-13.532c2.119-1.827,2.637-4.899,1.236-7.319l-15.047-26.06
		c-1.393-2.418-4.305-3.502-6.958-2.587l-19.591,6.822c-1.971-2.131-4.029-4.19-6.159-6.16l6.824-19.594
		c0.923-2.64-0.164-5.561-2.587-6.96L228.94,51.48c-2.417-1.399-5.491-0.877-7.317,1.239l-13.532,15.674
		c-2.775-0.859-5.598-1.613-8.443-2.255l-3.882-20.351c-0.522-2.748-2.926-4.732-5.721-4.732h-30.092
		c-2.795,0-5.197,1.988-5.72,4.732l-3.881,20.351c-2.845,0.642-5.667,1.393-8.444,2.255l-13.53-15.676
		c-1.825-2.116-4.897-2.637-7.322-1.241L94.998,66.522c-2.42,1.399-3.506,4.32-2.587,6.964l6.821,19.588
		c-2.129,1.97-4.188,4.029-6.158,6.16l-19.593-6.822c-2.641-0.915-5.562,0.169-6.959,2.587l-15.045,26.06
		c-1.396,2.42-0.877,5.492,1.239,7.319l15.677,13.532c-0.86,2.778-1.611,5.602-2.256,8.444l-20.354,3.882
		c-2.748,0.525-4.731,2.928-4.731,5.723l0.002,30.085c0,2.799,1.988,5.198,4.731,5.722l20.352,3.885
		c0.644,2.843,1.396,5.664,2.256,8.439l-15.679,13.536c-2.116,1.825-2.636,4.902-1.237,7.318l15.048,26.058
		c1.397,2.419,4.315,3.51,6.959,2.588l19.59-6.824c1.974,2.134,4.031,4.191,6.158,6.165l-6.821,19.593
		c-0.919,2.638,0.167,5.557,2.587,6.956l26.059,15.04c2.425,1.4,5.497,0.879,7.322-1.238l13.53-15.675
		c2.777,0.861,5.6,1.609,8.445,2.255l3.883,20.353c0.521,2.747,2.925,4.73,5.717,4.73h30.092c2.795,0,5.198-1.983,5.721-4.73
		l3.882-20.353c2.846-0.646,5.668-1.393,8.443-2.255l13.534,15.682c1.825,2.114,4.9,2.638,7.32,1.231l26.059-15.047
		c2.416-1.393,3.504-4.315,2.586-6.954l-6.823-19.593c2.13-1.969,4.189-4.026,6.159-6.16l19.597,6.824
		c2.647,0.922,5.56-0.169,6.956-2.588l15.043-26.058c1.397-2.422,0.878-5.493-1.238-7.318l-15.677-13.536
		c0.86-2.775,1.611-5.597,2.253-8.439L304.216,195.765z M271.053,214.367l14.975,12.922l-10.227,17.716l-18.714-6.512
		c-2.263-0.792-4.768-0.116-6.328,1.695c-3.246,3.77-6.8,7.323-10.571,10.57c-1.808,1.559-2.484,4.067-1.696,6.325l6.514,18.717
		l-17.711,10.224l-12.925-14.974c-1.564-1.809-4.081-2.485-6.336-1.689c-4.68,1.639-9.544,2.939-14.451,3.861
		c-2.355,0.443-4.197,2.28-4.646,4.629l-3.709,19.444h-20.452l-3.708-19.438c-0.449-2.355-2.292-4.192-4.645-4.636
		c-4.915-0.922-9.776-2.223-14.455-3.861c-0.63-0.223-1.28-0.329-1.925-0.329c-1.663,0-3.279,0.717-4.41,2.018l-12.925,14.974
		l-17.716-10.224l6.519-18.71c0.785-2.261,0.113-4.768-1.699-6.332c-3.764-3.24-7.319-6.797-10.573-10.57
		c-1.559-1.812-4.069-2.487-6.325-1.695l-18.71,6.512l-10.231-17.712l14.975-12.926c1.812-1.564,2.483-4.077,1.691-6.337
		c-1.64-4.685-2.94-9.548-3.858-14.45c-0.442-2.354-2.28-4.196-4.635-4.646l-19.442-3.708L52.7,164.774l19.444-3.709
		c2.35-0.449,4.188-2.292,4.629-4.645c0.924-4.904,2.225-9.771,3.862-14.456c0.789-2.258,0.119-4.771-1.689-6.33l-14.975-12.925
		l10.23-17.716l18.712,6.514c2.256,0.792,4.767,0.115,6.325-1.697c3.247-3.767,6.801-7.324,10.573-10.567
		c1.809-1.562,2.484-4.07,1.697-6.328l-6.517-18.71l17.716-10.228l12.923,14.97c1.564,1.809,4.081,2.479,6.337,1.692
		c4.686-1.641,9.545-2.939,14.449-3.858c2.355-0.44,4.198-2.28,4.649-4.632l3.705-19.445h20.457l3.709,19.445
		c0.449,2.352,2.291,4.191,4.646,4.632c4.907,0.921,9.771,2.218,14.451,3.858c2.255,0.787,4.771,0.116,6.336-1.692l12.92-14.97
		l17.716,10.224l-6.514,18.715c-0.788,2.258-0.111,4.766,1.696,6.328c3.767,3.243,7.325,6.798,10.576,10.567
		c1.562,1.812,4.067,2.489,6.326,1.697l18.707-6.514l10.23,17.716l-14.975,12.925c-1.81,1.559-2.481,4.074-1.691,6.332
		c1.64,4.684,2.939,9.546,3.863,14.454c0.441,2.354,2.279,4.196,4.631,4.645l19.441,3.709l0.003,20.452l-19.444,3.708
		c-2.352,0.449-4.19,2.292-4.631,4.646c-0.926,4.909-2.224,9.77-3.863,14.45C268.572,210.29,269.244,212.803,271.053,214.367z"/>
</g>
</svg>
