<?xml version="1.0" encoding="UTF-8"?>
<!DOCTYPE svg PUBLIC "-//W3C//DTD SVG 1.1//EN" "http://www.w3.org/Graphics/SVG/1.1/DTD/svg11.dtd">
<!-- Creator: CorelDRAW -->
<svg xmlns="http://www.w3.org/2000/svg" xml:space="preserve" width="6.82666in" height="6.82666in" style="shape-rendering:geometricPrecision; text-rendering:geometricPrecision; image-rendering:optimizeQuality; fill-rule:evenodd; clip-rule:evenodd"
viewBox="0 0 6.82666 6.82666"
 xmlns:xlink="http://www.w3.org/1999/xlink">
 <defs>
  <style type="text/css">
   <![CDATA[
    .fil0 {fill:none}
    .fil5 {fill:#5F5F5F}
    .fil2 {fill:#6F6F6F}
    .fil3 {fill:#474747;fill-rule:nonzero}
    .fil4 {fill:#5F5F5F;fill-rule:nonzero}
    .fil1 {fill:#757575;fill-rule:nonzero}
   ]]>
  </style>
 </defs>
 <g id="Layer_x0020_1">
  <metadata id="CorelCorpID_0Corel-Layer"/>
  <g id="_307846568">
   <rect id="_307846784" class="fil0" width="6.82666" height="6.82666"/>
   <rect id="_307847096" class="fil0" x="0.853331" y="0.853331" width="5.12" height="5.12"/>
  </g>
  <g id="_307846280">
   <g>
    <g>
     <polygon id="_307846592" class="fil1" points="5.11621,1.86128 2.68593,4.29156 2.5351,4.14073 4.96538,1.71045 "/>
     <path id="_307846640" class="fil2" d="M2.04467 3.45504l0.0675512 0.0675433 1.19186 1.19186 0.0675433 0.0675512 -0.0675433 0.0675472 -0.943567 0.943563c-0.086937,0.0869409 -0.201433,0.130417 -0.315846,0.130417 -0.114417,0 -0.228906,-0.0434764 -0.31585,-0.130421l-0.695264 -0.695264c-0.0869409,-0.0869449 -0.130409,-0.201433 -0.130409,-0.315843 0,-0.114413 0.0434685,-0.228902 0.130417,-0.31585l0.943559 -0.943563 0.0675472 -0.0675433z"/>
    </g>
    <path id="_307845968" class="fil3" d="M5.36018 0.978555l0.487925 0.487929 0.0754134 0.0754213 -0.0754134 0.0754134 -0.373571 0.373571c-0.052,0.052 -0.120811,0.0780079 -0.189776,0.0780118l0 0.000417323c-0.0687008,0 -0.137492,-0.0261457 -0.189772,-0.0784252l-0.259217 -0.259217c-0.0522795,-0.0522795 -0.0784252,-0.121067 -0.0784252,-0.189776l0.000417323 0c3.93701e-006,-0.0689567 0.0260118,-0.137776 0.0780118,-0.189776l0.373571 -0.373571 0.0754173 -0.0754173 0.0754173 0.0754173zm0.261673 0.563346l-0.337091 -0.337094 -0.298154 0.298154c-0.0108898,0.0108898 -0.0163425,0.0250039 -0.0163425,0.0389409l0.000417323 0c0,0.0142008 0.00531102,0.0283307 0.0159213,0.0389409l0.259217 0.259217c0.0106102,0.0106102 0.0247362,0.0159213 0.038937,0.0159213l0 0.000417323c0.013937,0 0.0280512,-0.00545276 0.0389409,-0.0163425l0.298154 -0.298154z"/>
   </g>
   <g>
    <path id="_307846232" class="fil4" d="M2.78357 4.19393l-0.0976339 0.0976339 -0.000933071 -0.000933071 0.0976339 -0.0976339 0.000933071 0.000933071zm-0.247531 -0.0522638l-0.000937008 -0.000937008 0.0976339 -0.0976339 0.000937008 0.000937008 -0.0976339 0.0976339z"/>
    <path id="_307845824" class="fil5" d="M2.19432 3.60468l0.0471417 0.0471457 -1.30358 1.30358c-0.0097126,-0.023185 -0.0173819,-0.0470354 -0.0230197,-0.0712677l1.27946 -1.27946zm0.196102 0.196106l0.0471417 0.0471417 -1.32696 1.32696 -0.0471417 -0.0471417 1.32696 -1.32696zm0.196106 0.196106l0.0471417 0.0471417 -1.32696 1.32696 -0.0471417 -0.0471417 1.32696 -1.32696zm0.196106 0.196106l0.0471417 0.0471417 -1.32696 1.32696 -0.0471417 -0.0471417 1.32696 -1.32696zm0.196102 0.196102l0.0471457 0.0471417 -1.32696 1.32696 -0.0471417 -0.0471417 1.32696 -1.32696zm0.196106 0.196106l0.0471417 0.0471417 -1.27945 1.27945c-0.0242362,-0.0056378 -0.0480827,-0.0133071 -0.0712677,-0.0230197l1.30357 -1.30357z"/>
   </g>
  </g>
 </g>
</svg>
